<svg id="visual" viewBox="0 0 900 600" width="900" height="600" xmlns="http://www.w3.org/2000/svg" xmlns:xlink="http://www.w3.org/1999/xlink" version="1.1"><g stroke-width="1" stroke-linejoin="bevel"><path d="M387 290L297 298L362 393Z" fill="#1d4e6b" stroke="#1d4e6b"></path><path d="M297 298L306 434L362 393Z" fill="#00101c" stroke="#00101c"></path><path d="M297 298L218 375L306 434Z" fill="#0c2435" stroke="#0c2435"></path><path d="M387 290L289 200L297 298Z" fill="#297ea6" stroke="#297ea6"></path><path d="M297 298L165 266L218 375Z" fill="#1d4e6b" stroke="#1d4e6b"></path><path d="M477 192L426 200L387 290Z" fill="#112e42" stroke="#112e42"></path><path d="M387 290L426 200L289 200Z" fill="#19435d" stroke="#19435d"></path><path d="M432 478L504 375L362 393Z" fill="#297ea6" stroke="#297ea6"></path><path d="M362 393L504 375L387 290Z" fill="#297ea6" stroke="#297ea6"></path><path d="M306 434L432 478L362 393Z" fill="#277297" stroke="#277297"></path><path d="M504 375L534 332L387 290Z" fill="#277297" stroke="#277297"></path><path d="M289 200L165 266L297 298Z" fill="#081a28" stroke="#081a28"></path><path d="M534 332L477 192L387 290Z" fill="#0c2435" stroke="#0c2435"></path><path d="M426 200L292 93L289 200Z" fill="#277297" stroke="#277297"></path><path d="M174 462L312 538L306 434Z" fill="#112e42" stroke="#112e42"></path><path d="M306 434L312 538L432 478Z" fill="#0c2435" stroke="#0c2435"></path><path d="M126 411L174 462L218 375Z" fill="#246688" stroke="#246688"></path><path d="M218 375L174 462L306 434Z" fill="#081a28" stroke="#081a28"></path><path d="M86 330L126 411L218 375Z" fill="#0c2435" stroke="#0c2435"></path><path d="M197 130L170 178L289 200Z" fill="#277297" stroke="#277297"></path><path d="M289 200L170 178L165 266Z" fill="#277297" stroke="#277297"></path><path d="M165 266L86 330L218 375Z" fill="#205a7a" stroke="#205a7a"></path><path d="M578 93L482 136L477 192Z" fill="#277297" stroke="#277297"></path><path d="M477 192L482 136L426 200Z" fill="#00101c" stroke="#00101c"></path><path d="M429 600L498 526L432 478Z" fill="#081a28" stroke="#081a28"></path><path d="M432 478L498 526L504 375Z" fill="#00101c" stroke="#00101c"></path><path d="M504 375L590 388L534 332Z" fill="#081a28" stroke="#081a28"></path><path d="M417 76L292 93L426 200Z" fill="#246688" stroke="#246688"></path><path d="M498 526L590 388L504 375Z" fill="#205a7a" stroke="#205a7a"></path><path d="M534 332L588 262L477 192Z" fill="#297ea6" stroke="#297ea6"></path><path d="M170 178L115 232L165 266Z" fill="#277297" stroke="#277297"></path><path d="M292 93L197 130L289 200Z" fill="#19435d" stroke="#19435d"></path><path d="M170 178L114 112L115 232Z" fill="#1d4e6b" stroke="#1d4e6b"></path><path d="M590 388L588 262L534 332Z" fill="#297ea6" stroke="#297ea6"></path><path d="M115 232L86 330L165 266Z" fill="#0c2435" stroke="#0c2435"></path><path d="M188 600L314 600L312 538Z" fill="#297ea6" stroke="#297ea6"></path><path d="M312 538L429 600L432 478Z" fill="#1d4e6b" stroke="#1d4e6b"></path><path d="M482 136L417 76L426 200Z" fill="#205a7a" stroke="#205a7a"></path><path d="M314 600L429 600L312 538Z" fill="#246688" stroke="#246688"></path><path d="M429 600L486 600L498 526Z" fill="#112e42" stroke="#112e42"></path><path d="M498 526L624 487L590 388Z" fill="#246688" stroke="#246688"></path><path d="M588 262L629 217L477 192Z" fill="#205a7a" stroke="#205a7a"></path><path d="M482 136L471 0L417 76Z" fill="#15384f" stroke="#15384f"></path><path d="M682 304L629 217L588 262Z" fill="#00101c" stroke="#00101c"></path><path d="M88 536L188 600L174 462Z" fill="#00101c" stroke="#00101c"></path><path d="M174 462L188 600L312 538Z" fill="#19435d" stroke="#19435d"></path><path d="M88 536L174 462L126 411Z" fill="#112e42" stroke="#112e42"></path><path d="M587 600L624 487L498 526Z" fill="#277297" stroke="#277297"></path><path d="M590 388L682 304L588 262Z" fill="#112e42" stroke="#112e42"></path><path d="M214 0L197 130L292 93Z" fill="#277297" stroke="#277297"></path><path d="M214 0L114 112L197 130Z" fill="#15384f" stroke="#15384f"></path><path d="M197 130L114 112L170 178Z" fill="#297ea6" stroke="#297ea6"></path><path d="M115 232L0 279L86 330Z" fill="#112e42" stroke="#112e42"></path><path d="M0 465L88 536L126 411Z" fill="#00101c" stroke="#00101c"></path><path d="M428 0L335 0L417 76Z" fill="#246688" stroke="#246688"></path><path d="M417 76L335 0L292 93Z" fill="#00101c" stroke="#00101c"></path><path d="M629 217L578 93L477 192Z" fill="#112e42" stroke="#112e42"></path><path d="M692 424L682 304L590 388Z" fill="#0c2435" stroke="#0c2435"></path><path d="M629 217L676 177L578 93Z" fill="#15384f" stroke="#15384f"></path><path d="M471 0L428 0L417 76Z" fill="#246688" stroke="#246688"></path><path d="M0 205L0 279L115 232Z" fill="#19435d" stroke="#19435d"></path><path d="M86 330L0 407L126 411Z" fill="#0c2435" stroke="#0c2435"></path><path d="M88 536L113 600L188 600Z" fill="#112e42" stroke="#112e42"></path><path d="M0 279L0 407L86 330Z" fill="#00101c" stroke="#00101c"></path><path d="M88 536L0 600L113 600Z" fill="#297ea6" stroke="#297ea6"></path><path d="M578 93L471 0L482 136Z" fill="#0c2435" stroke="#0c2435"></path><path d="M624 487L692 424L590 388Z" fill="#297ea6" stroke="#297ea6"></path><path d="M486 600L587 600L498 526Z" fill="#00101c" stroke="#00101c"></path><path d="M624 487L684 475L692 424Z" fill="#246688" stroke="#246688"></path><path d="M335 0L214 0L292 93Z" fill="#246688" stroke="#246688"></path><path d="M682 304L676 177L629 217Z" fill="#00101c" stroke="#00101c"></path><path d="M578 93L638 0L471 0Z" fill="#246688" stroke="#246688"></path><path d="M787 209L676 177L682 304Z" fill="#112e42" stroke="#112e42"></path><path d="M712 600L684 475L624 487Z" fill="#081a28" stroke="#081a28"></path><path d="M114 112L0 205L115 232Z" fill="#297ea6" stroke="#297ea6"></path><path d="M0 105L0 205L114 112Z" fill="#1d4e6b" stroke="#1d4e6b"></path><path d="M0 407L0 465L126 411Z" fill="#15384f" stroke="#15384f"></path><path d="M214 0L105 0L114 112Z" fill="#1d4e6b" stroke="#1d4e6b"></path><path d="M105 0L0 105L114 112Z" fill="#19435d" stroke="#19435d"></path><path d="M0 465L0 600L88 536Z" fill="#205a7a" stroke="#205a7a"></path><path d="M730 60L638 0L578 93Z" fill="#00101c" stroke="#00101c"></path><path d="M712 600L775 468L684 475Z" fill="#00101c" stroke="#00101c"></path><path d="M684 475L775 468L692 424Z" fill="#277297" stroke="#277297"></path><path d="M692 424L834 329L682 304Z" fill="#0c2435" stroke="#0c2435"></path><path d="M676 177L730 60L578 93Z" fill="#297ea6" stroke="#297ea6"></path><path d="M587 600L712 600L624 487Z" fill="#00101c" stroke="#00101c"></path><path d="M834 329L787 209L682 304Z" fill="#081a28" stroke="#081a28"></path><path d="M787 209L730 60L676 177Z" fill="#205a7a" stroke="#205a7a"></path><path d="M730 60L683 0L638 0Z" fill="#246688" stroke="#246688"></path><path d="M105 0L0 0L0 105Z" fill="#00101c" stroke="#00101c"></path><path d="M838 400L834 329L692 424Z" fill="#112e42" stroke="#112e42"></path><path d="M787 209L832 60L730 60Z" fill="#00101c" stroke="#00101c"></path><path d="M712 600L765 600L775 468Z" fill="#1d4e6b" stroke="#1d4e6b"></path><path d="M775 468L838 400L692 424Z" fill="#205a7a" stroke="#205a7a"></path><path d="M900 414L838 400L900 471Z" fill="#205a7a" stroke="#205a7a"></path><path d="M900 414L834 329L838 400Z" fill="#1d4e6b" stroke="#1d4e6b"></path><path d="M900 414L900 306L834 329Z" fill="#19435d" stroke="#19435d"></path><path d="M834 329L900 306L787 209Z" fill="#1d4e6b" stroke="#1d4e6b"></path><path d="M900 127L832 60L787 209Z" fill="#0c2435" stroke="#0c2435"></path><path d="M730 60L824 0L683 0Z" fill="#081a28" stroke="#081a28"></path><path d="M900 471L838 400L775 468Z" fill="#205a7a" stroke="#205a7a"></path><path d="M900 600L900 471L775 468Z" fill="#0c2435" stroke="#0c2435"></path><path d="M900 306L900 188L787 209Z" fill="#0c2435" stroke="#0c2435"></path><path d="M900 0L824 0L832 60Z" fill="#0c2435" stroke="#0c2435"></path><path d="M832 60L824 0L730 60Z" fill="#1d4e6b" stroke="#1d4e6b"></path><path d="M900 188L900 127L787 209Z" fill="#1d4e6b" stroke="#1d4e6b"></path><path d="M765 600L900 600L775 468Z" fill="#297ea6" stroke="#297ea6"></path><path d="M900 127L900 0L832 60Z" fill="#112e42" stroke="#112e42"></path></g></svg>